<?xml version="1.0" encoding="UTF-8"?>
<svg id="Layer_1" data-name="Layer 1" xmlns="http://www.w3.org/2000/svg" viewBox="0 0 665.01 208.16">
  <defs>
    <style>
      .cls-1 {
        fill: #1d1d1d;
      }
    </style>
  </defs>
  <path class="cls-1" d="m90.34,20.5c2.13-2.13,4.21-4.18,6.24-6.28.65-.67,1.32-.94,2.26-.94,23.7.02,47.4.02,71.1,0,.93,0,1.6.26,2.26.93,5.85,5.89,11.72,11.74,17.6,17.6.52.51.93.98.92,1.83-.05,5.61-.02,11.22-.03,16.82,0,.28-.05.55-.09.95h-59.85c.33.45.48.71.69.92,4.83,4.86,9.69,9.7,14.49,14.6.64.65,1.3.68,2.07.68,12.67,0,25.33,0,38,0,1.49,0,2.97,0,4.65,0,.02.62.05,1.17.05,1.72,0,14.43,0,28.86,0,43.28,0,5.66.02,11.31-.02,16.97,0,1.23.22,2.33.73,3.46,3.67,8.09,6.69,16.4,8.65,25.08,1.5,6.62,2.28,13.31,1.88,20.11-.22,3.7-.86,7.33-2.12,10.82-3.52,9.77-10.48,15.69-20.52,18.06-5.24,1.23-10.55,1.29-15.88.72-11.88-1.29-22.93-5.27-33.65-10.32-13.55-6.39-26.08-14.43-37.9-23.59-26.74-20.72-49.45-45.16-67.64-73.71-7.46-11.71-13.81-24-18.45-37.12-2.45-6.93-4.36-14-5.24-21.3-.87-7.19-.91-14.35,1.29-21.36C5.23,9.65,12.61,3.26,23.57.91c6.04-1.29,12.11-1.08,18.17-.15,11.49,1.76,22.23,5.78,32.57,10.93,4.84,2.41,9.52,5.16,14.26,7.77.54.3,1.07.63,1.76,1.05Zm99.58,113.74c-.49.39-.9.7-1.29,1.04-5.16,4.44-10.33,8.87-15.47,13.34-.8.7-1.6,1.03-2.69,1.03-29.65-.03-59.3-.03-88.95,0-1.12,0-1.85-.37-2.59-1.15-10.06-10.69-20.13-21.35-30.24-31.99-.76-.8-1.04-1.59-1.04-2.67.03-16.39.03-32.79,0-49.18,0-1.16.35-1.94,1.16-2.74,12.88-12.82,25.74-25.67,38.6-38.51.36-.36.71-.74,1.14-1.19-.48-.31-.86-.59-1.27-.82-2.38-1.34-4.74-2.71-7.16-3.99-9.35-4.94-19.02-9.08-29.37-11.48-6.82-1.58-13.7-2.39-20.69-1.3-4.22.66-8.19,2.02-11.71,4.48-5.66,3.95-8.73,9.54-10.12,16.16-1.34,6.39-.97,12.78.12,19.15,1.36,7.97,3.86,15.61,6.96,23.06,5.41,12.97,12.44,25.05,20.47,36.55,14.43,20.68,31.43,39.03,50.7,55.29,12.16,10.26,25.09,19.42,39.16,26.92,8.86,4.72,18.03,8.71,27.79,11.23,7.3,1.89,14.68,2.9,22.22,1.88,5.18-.7,9.95-2.46,13.99-5.88,4.96-4.2,7.5-9.71,8.6-15.99,1.08-6.22.66-12.41-.44-18.58-1.45-8.15-4.08-15.94-7.31-23.55-.14-.34-.32-.66-.54-1.1Zm-33.58-18.28v-16.12h-52.27c-.03-.56-.06-.94-.06-1.32,0-4.31.02-8.63-.02-12.94-.01-.91.3-1.5.95-2.1,5.44-5,10.86-10.02,16.25-15.06.65-.61,1.29-.85,2.16-.84,6.33.03,12.67.02,19,.02.46,0,.92,0,1.63,0-.32-.41-.46-.65-.65-.83-5-4.9-10-9.79-14.99-14.7-.49-.48-1.02-.62-1.68-.62-5.04.02-10.08.02-15.11,0-.78,0-1.33.23-1.88.8-8.94,9.37-17.9,18.71-26.87,28.05-.56.59-.86,1.17-.85,2.01.03,10.79.02,21.57.02,32.36,0,.42.05.83.08,1.3h74.29Z"/>
  <path class="cls-1" d="m200.49,149.62c-.03-.62-.07-1.08-.08-1.55,0-4.46.01-8.91-.02-13.37,0-.85.2-1.56.64-2.29,24.97-41.18,49.93-82.37,74.89-123.55.22-.37.46-.72.82-1.27.37.58.68,1.03.97,1.5,12.85,20.9,25.69,41.81,38.53,62.72,12.24,19.93,24.48,39.85,36.74,59.77.53.85.77,1.69.76,2.69-.04,4.55-.02,9.11-.02,13.66v1.62h-27.86c-16.29-26.11-32.62-52.28-49.08-78.67-.4.6-.71,1.04-.99,1.5-8.59,13.95-17.19,27.91-25.78,41.87-6.98,11.34-13.98,22.68-20.94,34.04-.58.95-1.17,1.38-2.36,1.37-8.2-.06-16.41-.03-24.61-.03h-1.63Z"/>
  <path class="cls-1" d="m399.41,12.76v99.11c.71,0,1.27,0,1.84,0,19.86,0,39.72.01,59.58-.03,1.23,0,2.01.38,2.81,1.28,6.45,7.29,12.95,14.53,19.44,21.79.42.47.76.92.75,1.62-.04,3.5-.02,7-.03,10.5,0,.14-.05.28-.11.58-.53.02-1.08.07-1.63.07-7.34,0-14.68,0-22.02,0-26.19,0-52.39,0-78.58.03-1.31,0-2.21-.36-3.12-1.31-5.9-6.17-11.86-12.28-17.82-18.39-.65-.67-.94-1.33-.94-2.27.02-32.78.02-65.57,0-98.35,0-.79.17-1.48.6-2.16,2.42-3.85,4.82-7.73,7.2-11.61.38-.62.75-.98,1.56-.97,9.88.03,19.77.02,29.65.03.19,0,.38.04.81.08Z"/>
  <path class="cls-1" d="m614.44,21.71v29.03h-80.07c-.04.63-.09,1.14-.09,1.64,0,3.98,0,7.96,0,11.93,0,19.94,0,39.88.02,59.82,0,1.16-.33,1.93-1.2,2.7-7.47,6.61-14.91,13.26-22.32,19.93-.73.65-1.45.96-2.43.95-3.55-.05-7.1-.02-10.65-.02-.47,0-.93-.04-1.49-.07-.03-.55-.07-1.02-.07-1.48,0-40.84,0-81.68-.02-122.51,0-.96.31-1.58,1.02-2.19,3.05-2.63,6.07-5.3,9.07-7.99.61-.55,1.23-.78,2.05-.78,30.51.02,61.03.02,91.54.01.68,0,1.29.06,1.9.48,4.05,2.74,8.13,5.43,12.2,8.14.2.13.38.29.55.42Z"/>
  <path class="cls-1" d="m665,147.62h-38.68V13.37c.42-.03.84-.08,1.26-.08,9.93,0,19.86,0,29.79-.02.77,0,1.34.17,1.88.78,1.67,1.91,3.39,3.79,5.13,5.64.46.49.69,1.01.64,1.67-.03.33,0,.67,0,1.01,0,41.03,0,82.05,0,123.08v2.17Z"/>
  <path class="cls-1" d="m540.26,67.03h34.18v1.44c0,9.2,0,18.4.02,27.6,0,.83-.2,1.43-.84,2-2.32,2.08-4.6,4.21-6.88,6.33-.43.4-.87.66-1.51.66-8.1-.02-16.21-.02-24.31-.02-.18,0-.37-.04-.65-.07v-37.93Z"/>
  <path class="cls-1" d="m275.83,111.55c10.56,0,19.1,8.59,19.06,19.15-.04,10.46-8.62,18.94-19.16,18.92-10.51-.02-19.05-8.54-19.05-19.01,0-10.57,8.54-19.06,19.14-19.06Z"/>
  <path class="cls-1" d="m236.81,176.43c-2.31-.18-2.72-.15-3.77.29-.03-.3-.07-.58-.07-.86,0-.32.03-.65.06-1.03.96.56,1.92.34,2.84.37.91.03,1.82,0,2.85,0-.46,1.28-.72,2.5.21,3.8-.74.52-1.42,1.12-2.21,1.53-2.23,1.16-4.59,1.34-6.98.61-2.92-.89-4.68-3.63-4.44-6.78.22-2.94,2.58-5.34,5.69-5.78,2.05-.29,4.01-.03,5.87.92.49.25,1.02.44,1.66.71-.31.5-.67,1.08-1.06,1.71-.32-.37-.52-.75-.83-.94-1.93-1.14-4-1.61-6.21-.93-2.39.73-3.84,2.89-3.65,5.38.18,2.42,1.89,4.26,4.35,4.67,1.3.22,2.58.16,3.83-.27,2.04-.71,2.24-1.07,1.86-3.39Z"/>
  <path class="cls-1" d="m536.69,171.1h1.79c-.51,1.68-.27,3.38-.25,5.05.02,1.64-.33,3.33.31,5.01h-2.01c-.18-.49-.23-1.02-.52-1.35-1.97-2.22-3.99-4.4-5.99-6.59-.06-.06-.16-.08-.43-.19.06,2.75-.3,5.41.23,8.13h-1.8c.54-1.1.61-8.58.07-10.01h2.68c.11.42.1.99.37,1.31,1.84,2.13,3.75,4.2,5.68,6.34.42-1.45.35-6.53-.12-7.7Z"/>
  <path class="cls-1" d="m587.48,171.11h2.54c.14.51.14,1.04.4,1.34,1.85,2.13,3.76,4.21,5.68,6.34.44-1.32.38-6.47-.1-7.62h1.8c-.48,1.33-.4,8.87.12,9.99h-2.15c-.11-.41-.11-.92-.36-1.21-1.83-2.09-3.72-4.13-5.58-6.19-.22-.25-.39-.54-.75-.73-.16,2.74-.47,5.4.02,8.13h-1.76c.47-1.01.59-8.54.14-10.04Z"/>
  <path class="cls-1" d="m487.77,168.5v1.66c-1.18-.32-7.6-.36-9.14-.04v4.04c2.23-.02,4.3.31,6.43-.27v1.61h-6.42c.1,1.87-.3,3.75.33,5.66h-2.07c.1-.6.27-1.18.27-1.76.03-2.87.02-5.75,0-8.62,0-.64-.12-1.27-.19-2.04,1.24,0,2.53,0,3.81,0,1.68,0,3.36.02,5.03-.01.61-.01,1.21-.14,1.94-.24Z"/>
  <path class="cls-1" d="m648.25,181.24c.5-1.32.57-8.48.15-10.13,2.9-.25,5.81.18,8.77-.26v1.37c-2.38-.36-4.72-.09-7.15-.18v3.25c1.42.33,3.8.28,4.87-.12v1.49h-4.86v3.54c2.39.03,4.75.28,7.21-.19v1.48c-.6-.08-1.22-.21-1.85-.22-2.34-.03-4.69-.01-7.14-.01Z"/>
  <path class="cls-1" d="m568.61,181.2h-2.32c.35-1.15-.4-1.91-.83-2.8h-5.24c-.4.86-1.21,1.59-.7,2.77h-2.11c1.56-2.27,4.43-8.9,4.33-10.05h2.38c-.06,1.18,3.11,8.32,4.48,10.08Zm-3.59-3.93c-.73-1.63-1.39-3.1-2.17-4.82-.8,1.77-1.46,3.22-2.19,4.82h4.35Z"/>
  <path class="cls-1" d="m318.51,171.11h2.29c.03,1.92,1.21,3.42,1.94,5.08.74,1.68,1.34,3.45,2.6,4.99h-2.27c.28-1.05-.4-1.81-.82-2.74h-5.33c-.38.85-1.21,1.59-.66,2.73h-2.15c1.39-1.87,4.47-8.91,4.4-10.06Zm-1.12,6.17c1.51.15,2.87.14,4.38.01-.76-1.68-1.41-3.14-2.17-4.83-.78,1.7-1.45,3.16-2.21,4.82Z"/>
  <path class="cls-1" d="m261.8,171.11h2.28c.05,1.92,1.22,3.43,1.95,5.09.74,1.68,1.34,3.45,2.59,4.98h-2.26c.28-1.05-.41-1.82-.83-2.74h-5.33c-.37.85-1.22,1.59-.66,2.73h-2.15c1.38-1.85,4.47-8.9,4.4-10.06Zm-1.1,6.13c1.52.2,2.85.16,4.36.05-.77-1.65-1.33-3.16-2.22-4.77-.77,1.69-1.43,3.14-2.14,4.72Z"/>
  <path class="cls-1" d="m433.95,178.26c.37.47.72.91,1.08,1.36-.52.29-1.01.53-1.47.82-1.81,1.11-3.76,1.38-5.8.86-2.56-.65-4.18-2.82-4.08-5.38.09-2.52,1.93-4.58,4.53-5.02,1.68-.28,3.34-.15,4.93.55.47.2.95.36,1.54.58-.23.42-.5.9-.78,1.41-1.66-1.64-3.59-2-5.71-1.43-1.78.48-2.92,1.85-3.1,3.56-.19,1.9.67,3.55,2.32,4.42,1.75.92,4.33.62,5.8-.71.27-.24.44-.59.74-1Z"/>
  <path class="cls-1" d="m353.83,178.3c.38.51.69.92.96,1.29-.55.33-1.03.63-1.52.92-1.78,1.05-3.69,1.3-5.68.79-2.7-.69-4.22-2.84-4.04-5.65.15-2.41,2.03-4.38,4.6-4.77,1.69-.26,3.34-.08,4.92.61.42.18.87.3,1.46.5-.26.46-.56.97-.88,1.51-1.34-1.7-4.19-2.25-6.29-1.28-1.91.88-2.81,2.7-2.36,4.87.33,1.6,1.37,2.6,2.85,3.14,2.13.78,4.5.02,5.96-1.94Z"/>
  <path class="cls-1" d="m627.59,178.29c.38.5.69.91.99,1.29-.54.32-1.02.61-1.5.9-1.78,1.06-3.68,1.31-5.67.82-2.71-.67-4.24-2.82-4.08-5.63.14-2.42,2.01-4.39,4.57-4.79,1.69-.26,3.34-.1,4.92.6.42.19.87.31,1.47.52-.24.43-.52.94-.84,1.5-1.11-1.43-2.61-1.72-4.19-1.73-1.51-.01-2.82.54-3.77,1.75-1.61,2.05-.81,5.28,1.58,6.49,2.15,1.09,4.96.4,6.51-1.72Z"/>
  <path class="cls-1" d="m379.38,181.19h-1.99c.59-3.01.1-6.01.29-9.1-1.54.02-2.91-.35-4.31.32v-1.65c1.6.52,3.25.27,4.88.26,1.65-.01,3.34.29,5.02-.3v1.68c-1.37-.66-2.74-.28-4.07-.33-.4,1.75-.28,8.07.17,9.12Z"/>
  <path class="cls-1" d="m296.32,180.05v1.45c-.62-.09-1.2-.25-1.78-.25-2.38-.03-4.77-.01-7.2-.01.54-1.28.58-8.76.04-10.09h1.99c-.5,1.49-.22,2.95-.26,4.4-.05,1.48-.01,2.95-.01,4.6,2.44.11,4.79.24,7.21-.1Z"/>
  <path class="cls-1" d="m506.45,171.13h1.72c-.49,1.75-.25,3.45-.23,5.14.02,1.62-.35,3.29.34,4.93h-1.99c.52-1.64.23-3.32.27-4.98.03-1.65.11-3.31-.1-5.08Z"/>
  <path class="cls-1" d="m403.96,171.16c-.23,3.35-.33,6.67.06,10.03h-1.88c.67-1.64.34-3.31.35-4.95,0-1.66.25-3.34-.26-5.08h1.72Z"/>
</svg>