<?xml version="1.0" encoding="UTF-8"?>
<svg version="1.1" xmlns="http://www.w3.org/2000/svg" width="741" height="211">
<path d="M0 0 C0.66 0 1.32 0 2 0 C3.87675255 3.71821269 5.72230584 7.45107654 7.5625 11.1875 C8.09552734 12.24259766 8.62855469 13.29769531 9.17773438 14.38476562 C9.92700195 15.91713867 9.92700195 15.91713867 10.69140625 17.48046875 C11.15748291 18.41785889 11.62355957 19.35524902 12.10375977 20.32104492 C13.1380485 23.41264129 12.98410865 24.92494087 12 28 C10.72889669 30.26268158 9.42182914 32.39866176 8 34.5625 C7.08258324 35.99478134 6.16739373 37.42849068 5.25390625 38.86328125 C4.73973145 39.66975098 4.22555664 40.4762207 3.69580078 41.30712891 C0.37537106 46.57985275 -2.83629876 51.91931474 -6.0625 57.25 C-6.79678627 58.46172369 -7.5311622 59.67339306 -8.265625 60.88500977 C-9.76492766 63.35861925 -11.26373154 65.83252997 -12.76220703 68.30664062 C-15.98548069 73.62765582 -19.21514851 78.94478726 -22.44454956 84.26208496 C-24.21331529 87.17455194 -25.98163426 90.08729015 -27.75 93 C-28.45833121 94.16666796 -29.16666454 95.33333462 -29.875 96.5 C-30.225625 97.0775 -30.57625 97.655 -30.9375 98.25 C-51.12499999 131.49999999 -51.12499999 131.49999999 -52.18727112 133.24961853 C-52.8963727 134.41755354 -53.60546896 135.58549178 -54.31455994 136.75343323 C-56.07359574 139.6507206 -57.83272066 142.54795377 -59.59204102 145.44506836 C-62.92038885 150.92615516 -66.24776694 156.4078248 -69.57223511 161.89126587 C-71.14743576 164.4893158 -72.72311293 167.08707657 -74.29882812 169.68481445 C-75.05183404 170.92653154 -75.8046049 172.16839119 -76.55712891 173.41040039 C-77.59869375 175.1294267 -78.64112388 176.84792863 -79.68359375 178.56640625 C-80.27712646 179.54552979 -80.87065918 180.52465332 -81.48217773 181.53344727 C-82.61780274 183.3789064 -83.79803192 185.19704788 -85 187 C-83.5281693 186.9939037 -83.5281693 186.9939037 -82.02660465 186.98768425 C-58.13940203 186.89103532 -34.252632 186.8519442 -10.36523533 186.87302971 C1.18667039 186.88189733 12.73799696 186.87213715 24.28979492 186.81835938 C34.35968812 186.77152783 44.42890869 186.75981532 54.49887615 186.7900821 C59.83000466 186.8048842 65.15982326 186.80223103 70.4908123 186.75750351 C75.51227123 186.71592831 80.53151193 186.72143245 85.55295372 186.76252174 C87.39234444 186.76937104 89.23189174 186.75924866 91.07107162 186.73056984 C104.95606117 186.52830404 104.95606117 186.52830404 110.0563221 190.20064163 C112.32824988 192.69344772 114.18267978 195.16577257 116 198 C116.84836405 199.03306668 117.70975081 200.05585064 118.59375 201.05859375 C119.2228125 201.84363281 119.851875 202.62867188 120.5 203.4375 C121.1496875 204.24058594 121.799375 205.04367188 122.46875 205.87109375 C124 208 124 208 125 211 C41.84 211 -41.32 211 -127 211 C-125.46693253 206.40079759 -124.15192105 203.25320175 -121.7265625 199.2109375 C-121.07300781 198.11515381 -120.41945313 197.01937012 -119.74609375 195.89038086 C-119.03921714 194.71849395 -118.33218214 193.54670256 -117.625 192.375 C-116.89403637 191.15467455 -116.16357299 189.93404932 -115.43359375 188.71313477 C-113.97095306 186.26890855 -112.50505616 183.82668594 -111.03613281 181.38623047 C-109.29582812 178.49198273 -107.56309683 175.59350774 -105.8359375 172.69140625 C-99.74231659 162.46590185 -93.52030891 152.32177369 -87.27124023 142.19067383 C-82.33738042 134.18734863 -77.43808158 126.16392368 -72.5625 118.125 C-72.03508209 117.25551727 -72.03508209 117.25551727 -71.49700928 116.36846924 C-68.99686418 112.24633803 -66.4982446 108.12328321 -64 104 C-61.14689185 99.29102437 -58.29310054 94.58246471 -55.4375 89.875 C-55.08535431 89.29445862 -54.73320862 88.71391724 -54.37039185 88.11578369 C-48.62833803 78.65265269 -42.83695877 69.22046655 -37.02587891 59.79956055 C-32.08576103 51.7835776 -27.19164794 43.74064792 -22.3125 35.6875 C-17.07357201 27.0427614 -11.81437066 18.41114129 -6.5 9.8125 C-5.6807605 8.48448364 -5.6807605 8.48448364 -4.8449707 7.12963867 C-4.34956787 6.33017822 -3.85416504 5.53071777 -3.34375 4.70703125 C-2.91255859 4.0106958 -2.48136719 3.31436035 -2.03710938 2.59692383 C-1 1 -1 1 0 0 Z " fill="#000000" transform="translate(127,0)"/>
<path d="M0 0 C3.94209538 1.31403179 4.30057532 2.78856653 6.30078125 6.37890625 C6.94088135 7.51537598 7.58098145 8.6518457 8.24047852 9.82275391 C8.93115234 11.06933594 9.62182617 12.31591797 10.3125 13.5625 C11.39580309 15.49299809 12.48243567 17.42159887 13.56907654 19.35021973 C14.30759806 20.66170266 15.04502577 21.97380211 15.78138733 23.28649902 C19.14080272 29.27251055 22.58868308 35.2046855 26.0625 41.125 C30.86884285 49.33404534 35.63374295 57.56570617 40.375 65.8125 C45.32136816 74.41065371 50.32898826 82.9694133 55.39633179 91.49658203 C56.42393234 93.22715088 57.44892252 94.95926889 58.47387695 96.69140625 C61.22786933 101.34476299 63.98554315 105.99298125 66.8203125 110.59765625 C67.56774534 111.83591516 68.31514542 113.07419385 69.0625 114.3125 C69.67222656 115.29863281 70.28195313 116.28476563 70.91015625 117.30078125 C72.29248806 120.72440591 71.85354324 122.43423996 71 126 C69.69311523 128.51708984 69.69311523 128.51708984 68.05859375 130.9609375 C67.47529297 131.84394531 66.89199219 132.72695312 66.29101562 133.63671875 C65.67935547 134.54035156 65.06769531 135.44398438 64.4375 136.375 C63.82197266 137.30183594 63.20644531 138.22867188 62.57226562 139.18359375 C61.05723666 141.4620094 59.53302854 143.73367334 58 146 C53.99208822 144.66402941 53.25016929 142.27248004 51.4453125 138.7109375 C51.10772415 138.06487549 50.7701358 137.41881348 50.4223175 136.75317383 C49.6950905 135.35960837 48.97210537 133.96382288 48.25289917 132.56610107 C46.34871868 128.86696553 44.41318406 125.18428361 42.48046875 121.5 C41.90236198 120.39523819 41.90236198 120.39523819 41.31257629 119.26815796 C38.14505752 113.2312775 34.83398662 107.28616189 31.4375 101.375 C25.56499172 91.12473578 19.99448748 80.72526869 14.46655273 70.28662109 C14.14299301 69.67585724 13.81943329 69.06509338 13.48606873 68.43582153 C12.55787502 66.68308922 11.63048806 64.92992976 10.703125 63.17675781 C8.80588818 59.63793249 6.84186359 56.14230829 4.83007812 52.66748047 C4 51 4 51 4 49 C0.59348309 52.14506866 -1.83759065 55.52379508 -4.3125 59.4375 C-4.68439453 59.99759766 -5.05628906 60.55769531 -5.43945312 61.13476562 C-7.02493442 63.66504025 -8.06495252 65.35260006 -7.76123047 68.37988281 C-6.93037692 71.23963917 -5.80022148 73.52273901 -4.33203125 76.11328125 C-3.77580078 77.10142822 -3.21957031 78.0895752 -2.64648438 79.10766602 C-2.04126953 80.16526123 -1.43605469 81.22285645 -0.8125 82.3125 C-0.18537109 83.41972412 0.44175781 84.52694824 1.08789062 85.66772461 C8.91662333 99.4491488 16.94084854 113.1173456 24.9921875 126.76953125 C25.96671875 128.42746704 25.96671875 128.42746704 26.9609375 130.11889648 C28.21494986 132.25215705 29.47263068 134.38326636 30.734375 136.51196289 C31.29382813 137.46449951 31.85328125 138.41703613 32.4296875 139.3984375 C32.92710449 140.24067871 33.42452148 141.08291992 33.93701172 141.95068359 C35 144 35 144 35 146 C30.99911307 146.24888281 27.00126335 146.42936435 22.99438477 146.54931641 C21.63486228 146.59934038 20.27587087 146.66739674 18.91821289 146.75439453 C7.70047769 147.45473055 7.70047769 147.45473055 3.66699219 144.00415039 C1.83419153 141.41920984 0.39552508 138.84217208 -1 136 C-1.79514945 134.67521783 -2.59897071 133.35557525 -3.4140625 132.04296875 C-4.15478265 130.75996503 -4.89168172 129.47474869 -5.625 128.1875 C-10.1970694 120.26968088 -14.99728823 112.50654037 -19.88525391 104.7800293 C-20.42069824 103.92578369 -20.95614258 103.07153809 -21.5078125 102.19140625 C-21.98879395 101.43029541 -22.46977539 100.66918457 -22.96533203 99.88500977 C-24 98 -24 98 -24 96 C-28.23330268 99.88973951 -30.85931511 104.93675077 -33.8125 109.8125 C-34.74739258 111.29073242 -34.74739258 111.29073242 -35.70117188 112.79882812 C-36.28060547 113.75853516 -36.86003906 114.71824219 -37.45703125 115.70703125 C-37.99303955 116.5781958 -38.52904785 117.44936035 -39.08129883 118.34692383 C-40.32297442 121.93270343 -39.51503915 123.58303099 -38 127 C-37.2497221 128.51863285 -36.45625832 130.01684562 -35.6171875 131.48828125 C-35.17246094 132.27654297 -34.72773437 133.06480469 -34.26953125 133.87695312 C-33.80933594 134.68068359 -33.34914062 135.48441406 -32.875 136.3125 C-31.95395011 137.93258361 -31.03458182 139.55362482 -30.1171875 141.17578125 C-29.71097168 141.88645752 -29.30475586 142.59713379 -28.88623047 143.3293457 C-28 145 -28 145 -28 146 C-37.9 146 -47.8 146 -58 146 C-60.000625 142.49375 -62.00125 138.9875 -64.0625 135.375 C-64.69808838 134.28106934 -65.33367676 133.18713867 -65.98852539 132.06005859 C-66.47828857 131.18172363 -66.96805176 130.30338867 -67.47265625 129.3984375 C-67.98062744 128.50817871 -68.48859863 127.61791992 -69.01196289 126.70068359 C-70.25510356 123.30270432 -69.96072655 121.46521381 -69 118 C-67.82348633 115.49658203 -67.82348633 115.49658203 -66.33203125 113.0078125 C-65.77588135 112.06824707 -65.21973145 111.12868164 -64.64672852 110.16064453 C-64.04143311 109.15888184 -63.4361377 108.15711914 -62.8125 107.125 C-61.52582042 104.95846472 -60.23936827 102.79179434 -58.953125 100.625 C-57.9640918 98.96984375 -57.9640918 98.96984375 -56.95507812 97.28125 C-53.95671614 92.24903408 -51.00955644 87.18737405 -48.0625 82.125 C-47.48717529 81.13943115 -46.91185059 80.1538623 -46.3190918 79.13842773 C-42.68867129 72.91621624 -39.08419125 66.67955135 -35.49267578 60.43481445 C-27.7082173 46.90003246 -19.78171551 33.45642963 -11.80224609 20.03613281 C-9.18980684 15.63511756 -6.59265328 11.22519303 -4 6.8125 C-3.58451904 6.10536865 -3.16903809 5.3982373 -2.7409668 4.66967773 C-1.82692419 3.11334572 -0.91338998 1.55671513 0 0 Z " fill="#000000" transform="translate(145,34)"/>
<path d="M0 0 C0.66 0 1.32 0 2 0 C23.88102894 44.55305466 23.88102894 44.55305466 33 65 C42.86113136 44.8404129 52.60396213 24.64028059 61.96289062 4.24194336 C62.62145402 2.81831161 63.29851114 1.40297772 64 0 C64.66 0 65.32 0 66 0 C68.92484835 10.79091964 71.67369507 21.61634103 74.328125 32.4765625 C74.62050175 33.67118166 74.62050175 33.67118166 74.9187851 34.88993454 C75.94508355 39.08389256 76.96945503 43.27831556 77.9921875 47.47314453 C79.04520677 51.790462 80.1051329 56.10605401 81.16652298 60.42131996 C81.98703957 63.76268203 82.80245476 67.10527381 83.61647797 70.44822311 C84.00528603 72.041068 84.39601574 73.63344513 84.78873444 75.22533035 C85.33495329 77.44141965 85.87390693 79.65915752 86.41113281 81.87744141 C86.71883606 83.13569733 87.02653931 84.39395325 87.34356689 85.69033813 C88 89 88 89 88 94 C83.05 94 78.1 94 73 94 C69.04 77.5 65.08 61 61 44 C57.37 51.26 53.74 58.52 50 66 C47.87998513 70.00033541 45.75686495 73.98029794 43.5625 77.9375 C42.82870117 79.27458008 42.82870117 79.27458008 42.08007812 80.63867188 C39.43257315 85.45264122 36.74038665 90.23833526 34 95 C33.34 95 32.68 95 32 95 C31.53215088 94.08935791 31.06430176 93.17871582 30.58227539 92.24047852 C28.41031112 88.01381969 26.23663009 83.7880451 24.0625 79.5625 C23.67416992 78.80757263 23.28583984 78.05264526 22.88574219 77.27484131 C18.12794073 68.02842198 13.36497014 58.7864848 8.42602539 49.63500977 C7.06691655 47.10292864 5.91165238 44.73495715 5 42 C4.66790527 43.5634314 4.66790527 43.5634314 4.32910156 45.15844727 C3.49052962 49.10117488 2.64683931 53.04279385 1.80175781 56.98413086 C1.43972803 58.67589925 1.07900659 60.36794825 0.71972656 62.06030273 C-1.56182492 72.80207654 -4.07855038 83.41303505 -7 94 C-11.95 94 -16.9 94 -22 94 C-20.31176494 83.98968612 -18.00881288 74.15399737 -15.68359375 64.27734375 C-15.2626958 62.48185583 -14.84196809 60.686328 -14.42140198 58.89076233 C-13.54483132 55.15112177 -12.6663187 51.41194443 -11.78637695 47.6730957 C-10.65739771 42.87544579 -9.53319087 38.07669232 -8.41038418 33.27759457 C-7.54493008 29.58068451 -6.67706922 25.88434279 -5.80845833 22.18817329 C-5.39267397 20.41765956 -4.97762565 18.64697281 -4.56332207 16.87611198 C-3.98662856 14.4128394 -3.40672345 11.9503452 -2.82592773 9.48803711 C-2.65500107 8.75509933 -2.4840744 8.02216156 -2.30796814 7.26701355 C-1.11429255 2.2285851 -1.11429255 2.2285851 0 0 Z " fill="#000000" transform="translate(653,94)"/>
<path d="M0 0 C4.95 0 9.9 0 15 0 C15.33 14.19 15.66 28.38 16 43 C17.98 41.35 19.96 39.7 22 38 C27.5394171 34.15964781 36.5176631 35.38062714 43 36 C49.75080484 37.57319641 54.10599658 42.4843559 58 48 C63.38834858 57.59244472 63.68980221 71.12798885 60.75 81.625 C57.97137994 89.31766108 53.081658 95.33258165 45.8046875 99.15234375 C42.01365869 100.29810037 38.50135657 100.32961058 34.5625 100.3125 C33.82451172 100.32861328 33.08652344 100.34472656 32.32617188 100.36132812 C25.67736703 100.36723817 21.17391689 98.17893287 16 94 C15.67 95.65 15.34 97.3 15 99 C10.05 99 5.1 99 0 99 C0 66.33 0 33.66 0 0 Z M17.25 54.75 C13.59044097 61.33720625 13.55306072 67.77746277 15 75 C16.83062942 80.288485 20.01643635 84.38227975 25 87 C29.92689518 87.86820646 34.29018736 87.69120085 38.9375 85.8125 C44.2519576 81.14221908 46.27077891 76.96074677 47 70 C47.19936484 62.8450174 45.62625122 57.51184788 41 52 C37.11417778 48.34275556 32.76934755 48.50012611 27.66015625 48.64453125 C23.02836935 49.26346313 20.44990161 51.55009839 17.25 54.75 Z " fill="#000000" transform="translate(418,89)"/>
<path d="M0 0 C8.58285258 8.82807694 9.1875 16.92785593 9.1875 29.25 C-6.6525 29.25 -22.4925 29.25 -38.8125 29.25 C-35.82966491 36.98057292 -35.82966491 36.98057292 -30.8125 42.25 C-24.93409161 44.20946946 -18.23648374 44.04330377 -12.375 42.125 C-9.21373192 39.81187701 -7.17179036 37.37259018 -4.8125 34.25 C0.04713179 34.85745397 3.9280518 36.97758967 8.1875 39.25 C6.82664832 45.74239657 3.0735586 49.89077071 -2.25 53.5625 C-11.28235653 59.46019255 -21.39503621 59.17112807 -31.8125 58.25 C-35.34049081 57.47272498 -37.88486544 56.34381459 -40.8125 54.25 C-41.88371094 53.48623047 -41.88371094 53.48623047 -42.9765625 52.70703125 C-50.33150217 46.86319736 -53.1531957 40.27611544 -54.55859375 31.109375 C-55.44837258 21.08909649 -53.17939709 12.39937201 -47.6875 4 C-34.53994421 -8.57592293 -15.17255347 -9.44069994 0 0 Z M-35.625 13.25 C-37.06931226 15.46479091 -37.06931226 15.46479091 -37.8125 19.25 C-27.5825 19.25 -17.3525 19.25 -6.8125 19.25 C-7.84549867 13.05200795 -8.26819791 12.03691841 -12.8125 8.25 C-21.45952575 5.36765808 -29.43642862 6.42123158 -35.625 13.25 Z " fill="#000000" transform="translate(542.8125,130.75)"/>
<path d="M0 0 C0.7014917 0.00539795 1.4029834 0.0107959 2.12573242 0.01635742 C9.37132438 0.22938877 14.04278904 2.17660172 19.0625 7.4375 C19.3925 5.7875 19.7225 4.1375 20.0625 2.4375 C25.0125 2.4375 29.9625 2.4375 35.0625 2.4375 C35.0625 22.5675 35.0625 42.6975 35.0625 63.4375 C30.1125 63.4375 25.1625 63.4375 20.0625 63.4375 C19.5675 60.4675 19.5675 60.4675 19.0625 57.4375 C18.175625 58.22125 17.28875 59.005 16.375 59.8125 C10.41273655 65.081477 3.65159323 65.02242657 -3.91015625 64.80859375 C-10.32497052 64.38753259 -15.18263688 62.13949794 -19.76953125 57.640625 C-25.89865636 50.18426842 -27.44321302 41.8778845 -27.3125 32.4375 C-27.32410156 31.59960938 -27.33570313 30.76171875 -27.34765625 29.8984375 C-27.30830295 21.42435998 -25.55535159 14.40224175 -19.6875 8.0625 C-18.96046875 7.25039062 -18.2334375 6.43828125 -17.484375 5.6015625 C-12.19406784 1.10642421 -6.80284381 -0.10024557 0 0 Z M-9.25 20.4375 C-12.59201895 26.37886702 -12.90103475 33.05986576 -11.44140625 39.69140625 C-9.70514334 44.86095741 -6.9620165 48.92524175 -1.9375 51.4375 C3.29090334 51.95863171 7.70286754 52.08023534 12.5 49.8125 C16.8707544 45.7615569 19.79764207 41.61145326 20.30078125 35.58203125 C20.45447929 28.68179808 20.44491217 23.02885346 16.0625 17.4375 C12.42670505 13.89038298 9.49620215 13.15171773 4.5625 12.9375 C-1.96987373 13.20340395 -5.25410461 15.25363572 -9.25 20.4375 Z " fill="#000000" transform="translate(364.9375,124.5625)"/>
<path d="M0 0 C5.28 0 10.56 0 16 0 C16 26.4 16 52.8 16 80 C27.22 80 38.44 80 50 80 C50 84.29 50 88.58 50 93 C33.5 93 17 93 0 93 C0 62.31 0 31.62 0 0 Z " fill="#000000" transform="translate(282,94)"/>
<path d="M0 0 C4.62 0 9.24 0 14 0 C14 32.67 14 65.34 14 99 C9.38 99 4.76 99 0 99 C0 66.33 0 33.66 0 0 Z " fill="#000000" transform="translate(567,89)"/>
</svg>
